<svg width="402" height="492" viewBox="0 0 402 492" fill="none" xmlns="http://www.w3.org/2000/svg">
<g opacity="0.1" clip-path="url(#clip0_1_87)">
<path d="M19.6383 492C16.517 492 13.2656 491.218 10.4044 489.653C0.91039 484.439 -2.60109 472.575 2.60111 463.189C38.3662 396.963 57.3543 322.003 57.3543 246.13C57.3543 170.257 38.2362 95.0365 2.341 28.9411C-2.73115 19.4245 0.780335 7.56118 10.1443 2.34655C19.6383 -2.73771 31.4733 0.651799 36.6755 10.1685C75.692 82.1303 96.2407 163.609 96.2407 246C96.2407 328.391 75.692 409.739 36.8056 481.701C33.2941 488.219 26.5312 492 19.6383 492Z" fill="white"/>
<path d="M124.723 425.905C123.162 425.905 121.601 425.644 120.171 425.122C113.408 422.645 110.027 415.084 112.628 408.305C132.006 356.55 141.89 301.927 141.89 246C141.89 190.073 132.006 135.58 112.628 83.6947C110.157 76.9157 113.538 69.4849 120.171 66.8776C126.934 64.4006 134.347 67.7901 136.948 74.5691C157.367 129.323 167.771 186.944 167.771 246C167.771 305.056 157.367 362.677 136.948 417.431C134.997 422.645 130.055 425.905 124.723 425.905Z" fill="white"/>
<path d="M219.403 371.021C218.362 371.021 217.322 371.021 216.281 370.63C209.259 368.935 204.967 361.895 206.787 354.855C215.501 319.135 219.923 282.111 219.923 244.957C219.923 207.803 215.631 172.213 207.308 137.145C205.617 130.105 209.909 123.065 216.932 121.37C223.955 119.806 230.978 123.978 232.668 131.018C241.512 168.172 246.064 206.499 246.064 244.957C246.064 283.415 241.382 323.307 232.148 361.113C230.718 367.11 225.385 371.021 219.533 371.021H219.403Z" fill="white"/>
<path d="M306.67 323.176C306.67 323.176 305.499 323.176 304.979 323.176C297.826 322.264 292.884 315.615 293.794 308.576C296.525 287.978 297.956 266.989 297.956 246.13C297.956 225.272 296.525 204.283 293.794 183.685C292.884 176.515 297.826 169.997 304.979 169.084C312.262 168.172 318.635 173.126 319.545 180.296C322.406 202.067 323.967 224.229 323.967 246.13C323.967 268.032 322.536 290.324 319.545 311.965C318.635 318.483 313.042 323.307 306.67 323.307V323.176Z" fill="white"/>
<path d="M388.995 267.901C381.842 267.901 375.989 262.035 375.989 254.865C375.989 249.129 375.989 243.262 375.729 237.526C375.469 230.356 381.061 224.229 388.214 223.968C395.237 223.447 401.48 229.313 401.74 236.483C402 242.61 402.13 248.738 402.13 254.865C402.13 262.035 396.278 267.901 389.125 267.901H388.995Z" fill="white"/>
</g>
<defs>
<clipPath id="clip0_1_87">
<rect width="402" height="492" fill="white"/>
</clipPath>
</defs>
</svg>
